<svg xmlns="http://www.w3.org/2000/svg" width="542" height="100"><path fill="#F6F9FC" d="M12 10h17a2 2 0 0 1 2 2v11a2 2 0 0 1-2 2H12a2 2 0 0 1-2-2V12a2 2 0 0 1 2-2z"/><path opacity="0.1" fill="#E25950" d="M31 21h-1v-7h1v7zm-21 0v-7h1v7h-1z"/><path fill="#E25950" d="M31 12v3H10v-3a2 2 0 0 1 2-2h17a2 2 0 0 1 2 2zM10 23v-3h21v3a2 2 0 0 1-2 2H12a2 2 0 0 1-2-2z"/><path fill="#43458B" d="M50 10h17a2 2 0 0 1 2 2v11a2 2 0 0 1-2 2H50a2 2 0 0 1-2-2V12a2 2 0 0 1 2-2z"/><path fill="#F6F9FC" d="M48 15.678l3.498-2.4.001-.001h.002v.001L56.926 17h-1.767L51.5 14.49 48 16.891v-1.213zm9-5.569v1.213l-3.499 2.4-.001.001-.001-.001-4.758-3.264a1.983 1.983 0 0 1 1.121-.444L53.5 12.51l3.5-2.401z"/><path fill="#E25950" d="M56.909 17l-3.659-2.51L49.591 17H48v-.121l5.248-3.601.001-.001h.002v.001L57 15.85V17h-.091zm-5.158-3.278v.001h-.002v-.001l-3.601-2.47a1.99 1.99 0 0 1 .601-.801l3.001 2.059L55.409 10H57v.121l-5.249 3.601z"/><path fill="#F6F9FC" d="M57 14.625h-3.375V17h-2.25v-2.375H48v-2.25h3.375V10h2.25v2.375H57v2.25z"/><path fill="#E25950" d="M57 13.998h-4V17h-1v-3.002h-4v-.996h4V10h1v3.002h4v.996z"/><path fill="#F6F9FC" d="M65.75 16a.75.75 0 1 1 0-1.5.75.75 0 0 1 0 1.5zm-1.25 3a.5.5 0 1 1 0-1 .5.5 0 0 1 0 1zm-1.25-5a.75.75 0 1 1 0-1.5.75.75 0 0 1 0 1.5zm-3 3a.75.75 0 1 1 0-1.5.75.75 0 0 1 0 1.5zm3 4a.75.75 0 1 1 0 1.5.75.75 0 0 1 0-1.5zM52.5 22.023l-.685.653c-.119.113-.311.018-.3-.149l.068-.959-.922-.146c-.16-.025-.208-.24-.074-.334l.77-.544-.465-.834c-.081-.145.052-.317.207-.268l.892.282.343-.895a.176.176 0 0 1 .332 0l.343.895.892-.282c.155-.049.288.123.207.268l-.465.834.77.544c.134.094.086.309-.074.334l-.922.146.068.959c.011.167-.181.262-.3.149l-.685-.653z"/><path fill="#FCD669" d="M92 10h9v15h-9V10z"/><path fill="#333" d="M88 10h5v15h-5a2 2 0 0 1-2-2V12a2 2 0 0 1 2-2z"/><path fill="#E25950" d="M105 25h-5V10h5a2 2 0 0 1 2 2v11a2 2 0 0 1-2 2z"/><path fill="#24B47E" d="M126 10h17a2 2 0 0 1 2 2v11a2 2 0 0 1-2 2h-17a2 2 0 0 1-2-2V12a2 2 0 0 1 2-2z"/><path fill="#FCD669" d="M134.5 11.496l8.999 6.004-8.999 6.004-8.999-6.004 8.999-6.004z"/><path fill="#43458B" d="M134.5 14a3.5 3.5 0 1 1 0 7 3.5 3.5 0 0 1 0-7z"/><path fill="#FFF" d="M137.689 18.929c-.18.4-.428.761-.737 1.064a8.447 8.447 0 0 0-5.861-3.263c.095-.421.262-.813.493-1.161a9.68 9.68 0 0 1 6.105 3.36z"/><path fill="#F6F9FC" d="M167 10h11v15h-11V10z"/><path opacity="0.1" fill="#E25950" d="M178 11h-11v-1h11v1zm-11 13h11v1h-11v-1z"/><path fill="#E25950" d="M172.045 20.97l-.003-1.974-1.399-.008.177-.819-1.82-.277.647-1.197-.58-1.585 1.593.634.471-1.818.698.356.668-1.283.76 1.264.621-.286.299 1.757 1.773-.557-.545 1.47.595 1.235-1.76.287.161.811-1.442-.014.008 1.985-.922.019zM168 25h-4a2 2 0 0 1-2-2V12a2 2 0 0 1 2-2h4v15zm13 0h-4V10h4a2 2 0 0 1 2 2v11a2 2 0 0 1-2 2zM202 10h17a2 2 0 0 1 2 2v11a2 2 0 0 1-2 2h-17a2 2 0 0 1-2-2V12a2 2 0 0 1 2-2z"/><path fill="#FFF" d="M215 19h-3v3h-3v-3h-3v-3h3v-3h3v3h3v3z"/><path fill="#E25950" d="M238 14h21v7h-21v-7z"/><path fill="#FCD669" d="M238 23v-3h21v3a2 2 0 0 1-2 2h-17a2 2 0 0 1-2-2z"/><path fill="#333" d="M259 12v3h-21v-3a2 2 0 0 1 2-2h17a2 2 0 0 1 2 2z"/><path fill="#E25950" d="M278 10h17a2 2 0 0 1 2 2v11a2 2 0 0 1-2 2h-17a2 2 0 0 1-2-2V12a2 2 0 0 1 2-2z"/><path fill="#F6F9FC" d="M297 19h-12v6h-3v-6h-6v-3h6v-6h3v6h12v3z"/><path opacity="0.1" fill="#E25950" d="M296 20v-5h1v5h-1zm-15 4h5v1h-5v-1zm0-14h5v1h-5v-1zm-5 5h1v5h-1v-5z"/><path fill="#FCD669" d="M314 13h21v9h-21v-9z"/><path fill="#E25950" d="M314 14v-2a2 2 0 0 1 2-2h17a2 2 0 0 1 2 2v2h-21zm19 11h-17a2 2 0 0 1-2-2v-2h21v2a2 2 0 0 1-2 2z"/><path fill="#F6F9FC" d="M319 15h2v2.5h-2V15z"/><path opacity="0.5" fill="#E25950" d="M319 20a2 2 0 0 1-2-2v-.5h2V20z"/><path fill="#E25950" d="M319 20v-2.5h2v.5a2 2 0 0 1-2 2zm-2-5h2v2.5h-2V15z"/><path fill="#43458B" d="M354 10h17a2 2 0 0 1 2 2v11a2 2 0 0 1-2 2h-17a2 2 0 0 1-2-2V12a2 2 0 0 1 2-2z"/><path fill="#FCE883" d="M367.031 18.344a.843.843 0 1 1 0-1.687.843.843 0 0 1 0 1.687zm-1.895-3.444a.849.849 0 1 1 1.2-1.201.849.849 0 0 1-1.2 1.201zm1.165 5.2a.85.85 0 0 1-1.201 1.201.85.85 0 0 1 1.201-1.201zm-3.801 2.775a.844.844 0 1 1 0-1.688.844.844 0 0 1 0 1.688zm0-9.063a.843.843 0 1 1-.001-1.687.843.843 0 0 1 .001 1.687zm-3.765 7.489a.849.849 0 1 1 1.2-1.201.849.849 0 0 1-1.2 1.201zm-.036-6.401a.85.85 0 0 1 1.201-1.201.85.85 0 0 1-1.201 1.201zm.113 2.6a.843.843 0 1 1-1.687.001.843.843 0 0 1 1.687-.001z"/><path fill="#F6F9FC" d="M392 10h17a2 2 0 0 1 2 2v11a2 2 0 0 1-2 2h-17a2 2 0 0 1-2-2V12a2 2 0 0 1 2-2z"/><path opacity="0.25" fill="#8898AA" d="M409 25h-17a2 2 0 0 1-2-2V12a2 2 0 0 1 2-2h17a2 2 0 0 1 2 2v11a2 2 0 0 1-2 2zm1-13a1 1 0 0 0-1-1h-17a1 1 0 0 0-1 1v11a1 1 0 0 0 1 1h17a1 1 0 0 0 1-1V12z"/><path fill="#555ABF" d="M411 19h-12v6h-3v-6h-6v-3h6v-6h3v6h12v3z"/><path fill="#F6F9FC" d="M434 10h9v15h-9V10z"/><path opacity="0.1" fill="#8898AA" d="M434 25v-1h9v1h-9zm0-15h9v1h-9v-1z"/><path fill="#555ABF" d="M430 10h5v15h-5a2 2 0 0 1-2-2V12a2 2 0 0 1 2-2z"/><path fill="#E25950" d="M447 25h-5V10h5a2 2 0 0 1 2 2v11a2 2 0 0 1-2 2z"/><path fill="#43458B" d="M486.929 23.5H484.5V25h-16v-1.5h-2.429A1.966 1.966 0 0 1 466 23V12c0-.174.029-.339.071-.5h2.429V10h16v1.5h2.429c.042.161.071.326.071.5v11c0 .174-.029.339-.071.5z"/><path fill="#F6F9FC" d="M483.659 10H485a2 2 0 0 1 2 2v.454L483.629 15H487v5h-3.288L487 22.483V23a2 2 0 0 1-2 2h-1.258L479 21.419V25h-5v-3.581L469.258 25H468a2 2 0 0 1-2-2v-.517L469.288 20H466v-5h3.371L466 12.454V12a2 2 0 0 1 2-2h1.341L474 13.519V10h5v3.519L483.659 10z"/><path fill="#E25950" d="M478 19v6h-3v-6h-9v-3h9v-6h3v6h9v3h-9zm.5-3.5v-.218l6.929-5.233a1.99 1.99 0 0 1 1.138.722l-6.261 4.729H478.5zm-12.291-4.374c.192-.392.507-.709.896-.906l6.99 5.28h-2.094l-5.792-4.374zM474.5 19.5v.218l-6.929 5.233a1.99 1.99 0 0 1-1.138-.722l6.261-4.729h1.806zm12.291 4.374a2 2 0 0 1-.896.906l-6.99-5.28h2.094l5.792 4.374zM506 10h17a2 2 0 0 1 2 2v11a2 2 0 0 1-2 2h-17a2 2 0 0 1-2-2V12a2 2 0 0 1 2-2z"/><path fill="#FFF" d="M514.316 17.4c.246-.842.382-1.362 1.77-1.903 1.388-.542 2.731.89 2.909 1.681-.054.046-.147-.023-.269-.093-.152-.088-.348-.175-.561-.032-.384.259-.466.476-.916.632-.451.155-.848.007-1.247-.329-.399-.336-1.06-.518-1.686.044m-.271.441c-.693.537-1.109.878-2.55.5-1.441-.379-1.686-2.326-1.365-3.071.159-.013.136.573.598.589.162.006.291-.006.41-.018.221-.022.406-.044.702.046.456.139.691.492.816.998.125.507.553 1.043 1.389.956m.361.091c.281.83.469 1.334-.358 2.574-.827 1.239-2.748.837-3.347.291.039-.156.585.057.751-.374.166-.432.109-.657.389-1.043.28-.385.689-.492 1.209-.446.52.047 1.166-.183 1.356-1.002m.114-.311c.876-.027 1.413-.058 2.357 1.094.943 1.153-.003 2.873-.7 3.287-.138-.083.226-.543-.139-.828-.364-.285-.596-.296-.883-.677-.287-.38-.269-.803-.073-1.287.196-.483.166-1.168-.562-1.589m-.541-.119c-.717-.506-1.164-.803-1.224-2.292-.06-1.489 1.731-2.293 2.537-2.203.06.149-.508.297-.388.744.119.447.298.596.298 1.072 0 .476-.268.804-.716 1.072-.448.268-.836.833-.507 1.607"/><path fill="#F6F9FC" d="M16 40h9v15h-9V40z"/><path opacity="0.1" fill="#8898AA" d="M16 55v-1h9v1h-9zm0-15h9v1h-9v-1z"/><path fill="#24B47E" d="M12 40h5v15h-5a2 2 0 0 1-2-2V42a2 2 0 0 1 2-2z"/><path fill="#F79A59" d="M29 55h-5V40h5a2 2 0 0 1 2 2v11a2 2 0 0 1-2 2z"/><path fill="#F6F9FC" d="M54 40h9v15h-9V40z"/><path opacity="0.1" fill="#8898AA" d="M54 55v-1h9v1h-9zm0-15h9v1h-9v-1z"/><path fill="#24B47E" d="M50 40h5v15h-5a2 2 0 0 1-2-2V42a2 2 0 0 1 2-2z"/><path fill="#E25950" d="M67 55h-5V40h5a2 2 0 0 1 2 2v11a2 2 0 0 1-2 2z"/><path fill="#F6F9FC" d="M88 40h17a2 2 0 0 1 2 2v11a2 2 0 0 1-2 2H88a2 2 0 0 1-2-2V42a2 2 0 0 1 2-2z"/><path opacity="0.2" fill="#8898AA" d="M105 55H88a2 2 0 0 1-2-2V42a2 2 0 0 1 2-2h17a2 2 0 0 1 2 2v11a2 2 0 0 1-2 2zm1-13a1 1 0 0 0-1-1H88a1 1 0 0 0-1 1v11a1 1 0 0 0 1 1h17a1 1 0 0 0 1-1V42z"/><path fill="#E25950" d="M96.5 44a3.5 3.5 0 1 1 0 7 3.5 3.5 0 0 1 0-7z"/><path fill="#F6F9FC" d="M124 44h21v7h-21v-7z"/><path opacity="0.1" fill="#8898AA" d="M144 51v-7h1v7h-1zm-20-7h1v7h-1v-7z"/><path fill="#45B2E8" d="M124 53v-3h21v3a2 2 0 0 1-2 2h-17a2 2 0 0 1-2-2z"/><path fill="#E25950" d="M145 42v3h-21v-3a2 2 0 0 1 2-2h17a2 2 0 0 1 2 2z"/><path fill="#F6F9FC" d="M168 40h9v15h-9V40z"/><path opacity="0.1" fill="#8898AA" d="M168 55v-1h9v1h-9zm0-15h9v1h-9v-1z"/><path fill="#24B47E" d="M164 40h5v15h-5a2 2 0 0 1-2-2V42a2 2 0 0 1 2-2z"/><path fill="#E25950" d="M181 55h-5V40h5a2 2 0 0 1 2 2v11a2 2 0 0 1-2 2z"/><path fill="#24B47E" d="M170.587 47.484a1.913 1.913 0 0 0 3.826 0h.852l.002.014a2.753 2.753 0 1 1-5.505 0l.002-.014h.823z"/><path fill="#B5562B" d="M172.5 45.5a1.5 1.5 0 1 1-.001 3.001 1.5 1.5 0 0 1 .001-3.001z"/><path fill="#F6F9FC" d="M200 44h21v7h-21v-7z"/><path opacity="0.1" fill="#8898AA" d="M220 51v-7h1v7h-1zm-20-7h1v7h-1v-7z"/><path fill="#6772E5" d="M200 53v-3h21v3a2 2 0 0 1-2 2h-17a2 2 0 0 1-2-2z"/><path fill="#E25950" d="M221 42v3h-21v-3a2 2 0 0 1 2-2h17a2 2 0 0 1 2 2zM240 40h17a2 2 0 0 1 2 2v11a2 2 0 0 1-2 2h-17a2 2 0 0 1-2-2V42a2 2 0 0 1 2-2z"/><path fill="#F6F9FC" d="M259 49h-12v6h-3v-6h-6v-3h6v-6h3v6h12v3z"/><path opacity="0.1" fill="#555ABF" d="M258 49v-3h1v3h-1zm-14 5h3v1h-3v-1zm0-14h3v1h-3v-1zm-6 6h1v3h-1v-3z"/><path fill="#555ABF" d="M259 48h-13v7h-1v-7h-7v-1h7v-7h1v7h13v1z"/><path fill="#43458B" d="M278 40h17a2 2 0 0 1 2 2v11a2 2 0 0 1-2 2h-17a2 2 0 0 1-2-2V42a2 2 0 0 1 2-2z"/><path fill="#F6F9FC" d="M276 45.678l3.498-2.4.001-.001h.001l.001.001L284.926 47h-1.767l-3.659-2.51-3.5 2.401v-1.213zm9-5.569v1.213l-3.499 2.4-.001.001-.001-.001-4.758-3.264a1.983 1.983 0 0 1 1.121-.444l3.638 2.496 3.5-2.401z"/><path fill="#E25950" d="M284.909 47l-3.659-2.51-3.659 2.51H276v-.121l5.249-3.601v-.001h.002v.001L285 45.85V47h-.091zm-5.158-3.278v.001h-.002v-.001l-3.601-2.47a1.99 1.99 0 0 1 .601-.801l3.001 2.059 3.659-2.51H285v.121l-5.249 3.601z"/><path fill="#F6F9FC" d="M285 44.625h-3.375V47h-2.25v-2.375H276v-2.25h3.375V40h2.25v2.375H285v2.25z"/><path fill="#E25950" d="M285 43.998h-4V47h-1v-3.002h-4v-.996h4V40h1v3.002h4v.996z"/><path fill="#F6F9FC" d="M292.5 46.719a1.22 1.22 0 1 1 0-2.439 1.22 1.22 0 0 1 0 2.439zm-2-2a1.22 1.22 0 1 1 0-2.439 1.22 1.22 0 0 1 0 2.439zm-.781 1.781a1.22 1.22 0 1 1-2.439 0 1.22 1.22 0 0 1 2.439 0zm.781 3.781a1.22 1.22 0 1 1 0 2.439 1.22 1.22 0 0 1 0-2.439z"/><path fill="#E25950" d="M292.5 46.187a.687.687 0 1 1-.002-1.374.687.687 0 0 1 .002 1.374zm-2 6.001a.688.688 0 1 1 0-1.376.688.688 0 0 1 0 1.376zm0-8.001a.687.687 0 1 1-.002-1.374.687.687 0 0 1 .002 1.374zm-2 3a.686.686 0 1 1 0-1.375.688.688 0 1 1 0 1.375z"/><path fill="#F6F9FC" d="M315.418 40.096L325 47.5l-9.582 7.404A1.994 1.994 0 0 1 314 53V42c0-.901.6-1.654 1.418-1.904z"/><path opacity="0.2" fill="#8898AA" d="M316 41a1 1 0 0 0-1 1v11a1 1 0 0 0 1 1h1v1h-1a2 2 0 0 1-2-2V42a2 2 0 0 1 2-2h1v1h-1z"/><path fill="#E25950" d="M333 55h-17c-.495 0-.941-.186-1.291-.484L325 47.5l-.733-.5H335v6a2 2 0 0 1-2 2z"/><path fill="#555ABF" d="M314.709 40.484c.35-.298.796-.484 1.291-.484h17a2 2 0 0 1 2 2v5.5h-10l-10.291-7.016z"/><path fill="#F5BE58" d="M318.507 45A2.496 2.496 0 0 1 321 47.5c0 1.381-1.116 2.5-2.493 2.5a2.496 2.496 0 0 1-2.493-2.5c0-1.381 1.116-2.5 2.493-2.5z"/><path fill="#24B47E" d="M360 55h-6a2 2 0 0 1-2-2V42a2 2 0 0 1 2-2h6v15z"/><path fill="#E25950" d="M371 55h-12V40h12a2 2 0 0 1 2 2v11a2 2 0 0 1-2 2z"/><path fill="#FCD669" d="M359 43.969a3.531 3.531 0 1 1 0 7.062 3.531 3.531 0 0 1 0-7.061z"/><path fill="#E25950" d="M359 45.271a2.23 2.23 0 1 1 0 4.458 2.23 2.23 0 0 1 0-4.458z"/><path fill="#F6F9FC" d="M358 46h2v2.031a1 1 0 1 1-2 0V46z"/><path fill="#217AB7" d="M392 40h17a2 2 0 0 1 2 2v11a2 2 0 0 1-2 2h-17a2 2 0 0 1-2-2V42a2 2 0 0 1 2-2z"/><path fill="#FCD669" d="M411 49h-12v6h-3v-6h-6v-3h6v-6h3v6h12v3z"/><path fill="#F6F9FC" d="M449 47v6a2 2 0 0 1-2 2h-17a2 2 0 0 1-2-2v-6h21z"/><path opacity="0.2" fill="#8898AA" d="M447 55h-17a2 2 0 0 1-2-2v-6h1v6a1 1 0 0 0 1 1h17a1 1 0 0 0 1-1v-6h1v6a2 2 0 0 1-2 2z"/><path fill="#E25950" d="M428 48v-6a2 2 0 0 1 2-2h17a2 2 0 0 1 2 2v6h-21z"/><path fill="#F6F9FC" d="M432.224 44a2.367 2.367 0 0 0 2.354 2.367 2.936 2.936 0 0 1-1.762.593 2.96 2.96 0 1 1 0-5.92c.663 0 1.268.225 1.762.593A2.367 2.367 0 0 0 432.224 44z"/><path fill="#F6F9FC" d="M437.937 44.156a.594.594 0 1 1 .001-1.187.594.594 0 0 1-.001 1.187zm-1.5-1.187a.594.594 0 1 1 .002-1.188.594.594 0 0 1-.002 1.188zm-.281 2.375a.594.594 0 1 1-1.188 0 .594.594 0 0 1 1.188 0zm-1.187-1.188a.594.594 0 1 1 0-1.188.594.594 0 0 1 0 1.188zm2.375.594a.593.593 0 1 1 0 1.186.593.593 0 0 1 0-1.186z"/><path fill="#E25950" d="M485 55h-17a2 2 0 0 1-2-2v-7h8v-6h11a2 2 0 0 1 2 2v11a2 2 0 0 1-2 2z"/><path fill="#F6F9FC" d="M466 51h21v1h-21v-1zm0-2h21v1h-21v-1zm0-2h21v1h-21v-1zm8-2h13v1h-13v-1zm0-2h13v1h-13v-1zm0-2h12.723c.171.295.277.634.277 1h-13v-1zm12.723 13h-20.446a1.987 1.987 0 0 1-.277-1h21c0 .366-.106.705-.277 1z"/><path opacity="0.2" fill="#E25950" d="M485 55h-17a2 2 0 0 1-2-2v-7h1v7a1 1 0 0 0 1 1h17a1 1 0 0 0 1-1V42a1 1 0 0 0-1-1h-11v-1h11a2 2 0 0 1 2 2v11a2 2 0 0 1-2 2z"/><path fill="#43458B" d="M466 47v-5a2 2 0 0 1 2-2h7v7h-9z"/><path fill="#FFF" d="M473.516 42.219a.703.703 0 1 1 0-1.405.703.703 0 0 1 0 1.405zm-.297 1.297a.703.703 0 1 1-1.407 0 .703.703 0 0 1 1.407 0zm-1.703-1.297a.704.704 0 1 1 0-1.407.704.704 0 0 1 0 1.407zm-.297 1.297a.703.703 0 1 1-1.407 0 .703.703 0 0 1 1.407 0zm-1.703-1.297a.704.704 0 1 1 0-1.407.704.704 0 0 1 0 1.407zm-.297 1.297a.703.703 0 1 1-1.407 0 .703.703 0 0 1 1.407 0zm-1.703-1.297a.703.703 0 1 1 0-1.405.703.703 0 0 1 0 1.405zm0 2.593a.704.704 0 1 1-.001 1.407.704.704 0 0 1 .001-1.407zm2 0a.704.704 0 1 1-.001 1.407.704.704 0 0 1 .001-1.407zm2 0a.704.704 0 1 1-.001 1.407.704.704 0 0 1 .001-1.407zm2 0a.704.704 0 1 1-.001 1.407.704.704 0 0 1 .001-1.407z"/><path opacity="0.5" fill="#FFF" d="M475 44.021a.698.698 0 0 1-.484.198.704.704 0 1 1 0-1.406c.188 0 .358.076.484.197v1.011zm-9-.975a.697.697 0 0 1 1.219.47.703.703 0 0 1-.703.703.694.694 0 0 1-.516-.234v-.939z"/><path d="M523 55h-11.098l8.66-15H523a2 2 0 0 1 2 2v11a2 2 0 0 1-2 2zm-14.562 0H506a2 2 0 0 1-2-2V42a2 2 0 0 1 2-2h11.098l-8.66 15z"/></svg>